# vtk DataFile Version 3.0
vtk output
ASCII
DATASET UNSTRUCTURED_GRID
POINTS 256 double
0.0000000000 0.0000000000 0.0
0.0860000000 0.0000000000 0.0
0.1461040764 0.0601040764 0.0
0.1461040764 0.1451040764 0.0
0.0860000000 0.2052081528 0.0
0.0010000000 0.2052081528 0.0
-0.0591040764 0.1451040764 0.0
-0.0591040764 0.0601040764 0.0
0.0010000000 -0.0000000000 0.0
-0.1192081528 -0.0000000000 0.0
-0.1441040764 0.1451040764 0.0
-0.2042081528 0.0850000000 0.0
-0.2042081528 0.2052081528 0.0
-0.0591040764 0.2653122292 0.0
-0.1441040764 0.2653122292 0.0
-0.2042081528 0.2052081528 0.0
-0.2042081528 0.3254163056 0.0
-0.0591040764 0.3503122292 0.0
-0.1192081528 0.4104163056 0.0
0.0010000000 0.4104163056 0.0
0.0860000000 0.2902081528 0.0
0.0258959236 0.3503122292 0.0
-0.0591040764 0.3503122292 0.0
-0.1192081528 0.2902081528 0.0
-0.1192081528 0.4104163056 0.0
0.0258959236 0.4353122292 0.0
-0.0342081528 0.4954163056 0.0
0.0860000000 0.4954163056 0.0
0.1461040764 0.3503122292 0.0
0.1461040764 0.4353122292 0.0
0.0860000000 0.4954163056 0.0
0.2062081528 0.4954163056 0.0
0.2311040764 0.3503122292 0.0
0.2912081528 0.4104163056 0.0
0.2912081528 0.2902081528 0.0
0.2062081528 0.2052081528 0.0
0.2062081528 0.2902081528 0.0
0.1461040764 0.3503122292 0.0
0.0611040764 0.3503122292 0.0
0.0010000000 0.2902081528 0.0
0.0010000000 0.4104163056 0.0
0.1461040764 0.4353122292 0.0
0.0860000000 0.4954163056 0.0
0.2062081528 0.4954163056 0.0
0.2663122292 0.3503122292 0.0
0.2663122292 0.4353122292 0.0
0.2062081528 0.4954163056 0.0
0.3264163056 0.4954163056 0.0
0.3513122292 0.3503122292 0.0
0.4114163056 0.4104163056 0.0
0.4114163056 0.2902081528 0.0
0.2912081528 0.2052081528 0.0
0.3513122292 0.2653122292 0.0
0.3513122292 0.3503122292 0.0
0.2912081528 0.4104163056 0.0
0.4114163056 0.4104163056 0.0
0.4363122292 0.2653122292 0.0
0.4964163056 0.3254163056 0.0
0.4964163056 0.2052081528 0.0
0.3513122292 0.1451040764 0.0
0.4363122292 0.1451040764 0.0
0.4964163056 0.2052081528 0.0
0.4964163056 0.0850000000 0.0
0.3513122292 0.0601040764 0.0
0.4114163056 -0.0000000000 0.0
0.2912081528 -0.0000000000 0.0
0.2311040764 0.0601040764 0.0
0.2912081528 0.1202081528 0.0
0.2912081528 0.2052081528 0.0
0.2311040764 0.2653122292 0.0
0.1461040764 0.2653122292 0.0
0.0860000000 0.2052081528 0.0
0.0860000000 0.3254163056 0.0
0.2311040764 0.3503122292 0.0
0.1710000000 0.4104163056 0.0
0.2912081528 0.4104163056 0.0
0.3513122292 0.2653122292 0.0
0.3513122292 0.3503122292 0.0
0.2912081528 0.4104163056 0.0
0.4114163056 0.4104163056 0.0
0.4363122292 0.2653122292 0.0
0.4964163056 0.3254163056 0.0
0.4964163056 0.2052081528 0.0
0.3762081528 0.1202081528 0.0
0.4363122292 0.1803122292 0.0
0.4363122292 0.2653122292 0.0
0.3762081528 0.3254163056 0.0
0.4964163056 0.3254163056 0.0
0.5213122292 0.1803122292 0.0
0.5814163056 0.2404163056 0.0
0.5814163056 0.1202081528 0.0
0.4363122292 0.0601040764 0.0
0.5213122292 0.0601040764 0.0
0.5814163056 0.1202081528 0.0
0.5814163056 0.0000000000 0.0
0.4363122292 -0.0248959236 0.0
0.4964163056 -0.0850000000 0.0
0.3762081528 -0.0850000000 0.0
0.2912081528 0.0000000000 0.0
0.3762081528 0.0000000000 0.0
0.4363122292 0.0601040764 0.0
0.4363122292 0.1451040764 0.0
0.3762081528 0.2052081528 0.0
0.4964163056 0.2052081528 0.0
0.5213122292 0.0601040764 0.0
0.5814163056 0.1202081528 0.0
0.5814163056 0.0000000000 0.0
0.4363122292 -0.0601040764 0.0
0.5213122292 -0.0601040764 0.0
0.5814163056 0.0000000000 0.0
0.5814163056 -0.1202081528 0.0
0.4363122292 -0.1451040764 0.0
0.4964163056 -0.2052081528 0.0
0.3762081528 -0.2052081528 0.0
0.2912081528 -0.0850000000 0.0
0.3513122292 -0.1451040764 0.0
0.4363122292 -0.1451040764 0.0
0.4964163056 -0.0850000000 0.0
0.4964163056 -0.2052081528 0.0
0.3513122292 -0.2301040764 0.0
0.4114163056 -0.2902081528 0.0
0.2912081528 -0.2902081528 0.0
0.2311040764 -0.1451040764 0.0
0.2311040764 -0.2301040764 0.0
0.2912081528 -0.2902081528 0.0
0.1710000000 -0.2902081528 0.0
0.1461040764 -0.1451040764 0.0
0.0860000000 -0.2052081528 0.0
0.0860000000 -0.0850000000 0.0
0.1461040764 -0.0601040764 0.0
0.2311040764 -0.0601040764 0.0
0.2912081528 0.0000000000 0.0
0.2912081528 0.0850000000 0.0
0.2311040764 0.1451040764 0.0
0.1461040764 0.1451040764 0.0
0.0860000000 0.0850000000 0.0
0.0860000000 0.2052081528 0.0
0.2311040764 0.2301040764 0.0
0.1710000000 0.2902081528 0.0
0.2912081528 0.2902081528 0.0
0.3513122292 0.1451040764 0.0
0.3513122292 0.2301040764 0.0
0.2912081528 0.2902081528 0.0
0.4114163056 0.2902081528 0.0
0.4363122292 0.1451040764 0.0
0.4964163056 0.2052081528 0.0
0.4964163056 0.0850000000 0.0
0.3762081528 0.0000000000 0.0
0.4363122292 0.0601040764 0.0
0.4363122292 0.1451040764 0.0
0.3762081528 0.2052081528 0.0
0.4964163056 0.2052081528 0.0
0.5213122292 0.0601040764 0.0
0.5814163056 0.1202081528 0.0
0.5814163056 0.0000000000 0.0
0.4363122292 -0.0601040764 0.0
0.5213122292 -0.0601040764 0.0
0.5814163056 0.0000000000 0.0
0.5814163056 -0.1202081528 0.0
0.4363122292 -0.1451040764 0.0
0.4964163056 -0.2052081528 0.0
0.3762081528 -0.2052081528 0.0
0.2912081528 -0.1202081528 0.0
0.3762081528 -0.1202081528 0.0
0.4363122292 -0.0601040764 0.0
0.4363122292 0.0248959236 0.0
0.3762081528 0.0850000000 0.0
0.4964163056 0.0850000000 0.0
0.5213122292 -0.0601040764 0.0
0.5814163056 0.0000000000 0.0
0.5814163056 -0.1202081528 0.0
0.4363122292 -0.1803122292 0.0
0.5213122292 -0.1803122292 0.0
0.5814163056 -0.1202081528 0.0
0.5814163056 -0.2404163056 0.0
0.4363122292 -0.2653122292 0.0
0.4964163056 -0.3254163056 0.0
0.3762081528 -0.3254163056 0.0
0.2912081528 -0.2052081528 0.0
0.3513122292 -0.2653122292 0.0
0.4363122292 -0.2653122292 0.0
0.4964163056 -0.2052081528 0.0
0.4964163056 -0.3254163056 0.0
0.3513122292 -0.3503122292 0.0
0.4114163056 -0.4104163056 0.0
0.2912081528 -0.4104163056 0.0
0.2311040764 -0.2653122292 0.0
0.2311040764 -0.3503122292 0.0
0.2912081528 -0.4104163056 0.0
0.1710000000 -0.4104163056 0.0
0.1461040764 -0.2653122292 0.0
0.0860000000 -0.3254163056 0.0
0.0860000000 -0.2052081528 0.0
0.1461040764 -0.1451040764 0.0
0.2062081528 -0.2052081528 0.0
0.2912081528 -0.2052081528 0.0
0.3513122292 -0.1451040764 0.0
0.3513122292 -0.0601040764 0.0
0.2912081528 0.0000000000 0.0
0.4114163056 0.0000000000 0.0
0.4363122292 -0.1451040764 0.0
0.4964163056 -0.0850000000 0.0
0.4964163056 -0.2052081528 0.0
0.3513122292 -0.2653122292 0.0
0.4363122292 -0.2653122292 0.0
0.4964163056 -0.2052081528 0.0
0.4964163056 -0.3254163056 0.0
0.3513122292 -0.3503122292 0.0
0.4114163056 -0.4104163056 0.0
0.2912081528 -0.4104163056 0.0
0.2062081528 -0.2902081528 0.0
0.2663122292 -0.3503122292 0.0
0.3513122292 -0.3503122292 0.0
0.4114163056 -0.2902081528 0.0
0.4114163056 -0.4104163056 0.0
0.2663122292 -0.4353122292 0.0
0.3264163056 -0.4954163056 0.0
0.2062081528 -0.4954163056 0.0
0.1461040764 -0.3503122292 0.0
0.1461040764 -0.4353122292 0.0
0.2062081528 -0.4954163056 0.0
0.0860000000 -0.4954163056 0.0
0.0611040764 -0.3503122292 0.0
0.0010000000 -0.4104163056 0.0
0.0010000000 -0.2902081528 0.0
0.0860000000 -0.2052081528 0.0
0.0860000000 -0.2902081528 0.0
0.1461040764 -0.3503122292 0.0
0.2311040764 -0.3503122292 0.0
0.2912081528 -0.2902081528 0.0
0.2912081528 -0.4104163056 0.0
0.1461040764 -0.4353122292 0.0
0.2062081528 -0.4954163056 0.0
0.0860000000 -0.4954163056 0.0
0.0258959236 -0.3503122292 0.0
0.0258959236 -0.4353122292 0.0
0.0860000000 -0.4954163056 0.0
-0.0342081528 -0.4954163056 0.0
-0.0591040764 -0.3503122292 0.0
-0.1192081528 -0.4104163056 0.0
-0.1192081528 -0.2902081528 0.0
0.0010000000 -0.2052081528 0.0
-0.0591040764 -0.2653122292 0.0
-0.0591040764 -0.3503122292 0.0
0.0010000000 -0.4104163056 0.0
-0.1192081528 -0.4104163056 0.0
-0.1441040764 -0.2653122292 0.0
-0.2042081528 -0.3254163056 0.0
-0.2042081528 -0.2052081528 0.0
-0.0591040764 -0.1451040764 0.0
-0.1441040764 -0.1451040764 0.0
-0.2042081528 -0.2052081528 0.0
-0.2042081528 -0.0850000000 0.0
-0.0591040764 -0.0601040764 0.0
-0.1192081528 0.0000000000 0.0
0.0010000000 0.0000000000 0.0
CELLS 255 765
2 0 1
2 1 2
2 2 3
2 3 4
2 4 5
2 5 6
2 6 7
2 7 8
2 7 9
2 6 10
2 10 11
2 10 12
2 5 13
2 13 14
2 14 15
2 14 16
2 13 17
2 17 18
2 17 19
2 4 20
2 20 21
2 21 22
2 22 23
2 22 24
2 21 25
2 25 26
2 25 27
2 20 28
2 28 29
2 29 30
2 29 31
2 28 32
2 32 33
2 32 34
2 3 35
2 35 36
2 36 37
2 37 38
2 38 39
2 38 40
2 37 41
2 41 42
2 41 43
2 36 44
2 44 45
2 45 46
2 45 47
2 44 48
2 48 49
2 48 50
2 35 51
2 51 52
2 52 53
2 53 54
2 53 55
2 52 56
2 56 57
2 56 58
2 51 59
2 59 60
2 60 61
2 60 62
2 59 63
2 63 64
2 63 65
2 2 66
2 66 67
2 67 68
2 68 69
2 69 70
2 70 71
2 70 72
2 69 73
2 73 74
2 73 75
2 68 76
2 76 77
2 77 78
2 77 79
2 76 80
2 80 81
2 80 82
2 67 83
2 83 84
2 84 85
2 85 86
2 85 87
2 84 88
2 88 89
2 88 90
2 83 91
2 91 92
2 92 93
2 92 94
2 91 95
2 95 96
2 95 97
2 66 98
2 98 99
2 99 100
2 100 101
2 101 102
2 101 103
2 100 104
2 104 105
2 104 106
2 99 107
2 107 108
2 108 109
2 108 110
2 107 111
2 111 112
2 111 113
2 98 114
2 114 115
2 115 116
2 116 117
2 116 118
2 115 119
2 119 120
2 119 121
2 114 122
2 122 123
2 123 124
2 123 125
2 122 126
2 126 127
2 126 128
2 1 129
2 129 130
2 130 131
2 131 132
2 132 133
2 133 134
2 134 135
2 134 136
2 133 137
2 137 138
2 137 139
2 132 140
2 140 141
2 141 142
2 141 143
2 140 144
2 144 145
2 144 146
2 131 147
2 147 148
2 148 149
2 149 150
2 149 151
2 148 152
2 152 153
2 152 154
2 147 155
2 155 156
2 156 157
2 156 158
2 155 159
2 159 160
2 159 161
2 130 162
2 162 163
2 163 164
2 164 165
2 165 166
2 165 167
2 164 168
2 168 169
2 168 170
2 163 171
2 171 172
2 172 173
2 172 174
2 171 175
2 175 176
2 175 177
2 162 178
2 178 179
2 179 180
2 180 181
2 180 182
2 179 183
2 183 184
2 183 185
2 178 186
2 186 187
2 187 188
2 187 189
2 186 190
2 190 191
2 190 192
2 129 193
2 193 194
2 194 195
2 195 196
2 196 197
2 197 198
2 197 199
2 196 200
2 200 201
2 200 202
2 195 203
2 203 204
2 204 205
2 204 206
2 203 207
2 207 208
2 207 209
2 194 210
2 210 211
2 211 212
2 212 213
2 212 214
2 211 215
2 215 216
2 215 217
2 210 218
2 218 219
2 219 220
2 219 221
2 218 222
2 222 223
2 222 224
2 193 225
2 225 226
2 226 227
2 227 228
2 228 229
2 228 230
2 227 231
2 231 232
2 231 233
2 226 234
2 234 235
2 235 236
2 235 237
2 234 238
2 238 239
2 238 240
2 225 241
2 241 242
2 242 243
2 243 244
2 243 245
2 242 246
2 246 247
2 246 248
2 241 249
2 249 250
2 250 251
2 250 252
2 249 253
2 253 254
2 253 255
CELL_TYPES 255
3
3
3
3
3
3
3
3
3
3
3
3
3
3
3
3
3
3
3
3
3
3
3
3
3
3
3
3
3
3
3
3
3
3
3
3
3
3
3
3
3
3
3
3
3
3
3
3
3
3
3
3
3
3
3
3
3
3
3
3
3
3
3
3
3
3
3
3
3
3
3
3
3
3
3
3
3
3
3
3
3
3
3
3
3
3
3
3
3
3
3
3
3
3
3
3
3
3
3
3
3
3
3
3
3
3
3
3
3
3
3
3
3
3
3
3
3
3
3
3
3
3
3
3
3
3
3
3
3
3
3
3
3
3
3
3
3
3
3
3
3
3
3
3
3
3
3
3
3
3
3
3
3
3
3
3
3
3
3
3
3
3
3
3
3
3
3
3
3
3
3
3
3
3
3
3
3
3
3
3
3
3
3
3
3
3
3
3
3
3
3
3
3
3
3
3
3
3
3
3
3
3
3
3
3
3
3
3
3
3
3
3
3
3
3
3
3
3
3
3
3
3
3
3
3
3
3
3
3
3
3
3
3
3
3
3
3
3
3
3
3
3
3
3
3
3
3
3
3
3
3
3
3
3
3
CELL_DATA 255
SCALARS vessel_id int 1
LOOKUP_TABLE default
0
1
2
3
4
5
6
7
8
9
10
11
12
13
14
15
16
17
18
19
20
21
22
23
24
25
26
27
28
29
30
31
32
33
34
35
36
37
38
39
40
41
42
43
44
45
46
47
48
49
50
51
52
53
54
55
56
57
58
59
60
61
62
63
64
65
66
67
68
69
70
71
72
73
74
75
76
77
78
79
80
81
82
83
84
85
86
87
88
89
90
91
92
93
94
95
96
97
98
99
100
101
102
103
104
105
106
107
108
109
110
111
112
113
114
115
116
117
118
119
120
121
122
123
124
125
126
127
128
129
130
131
132
133
134
135
136
137
138
139
140
141
142
143
144
145
146
147
148
149
150
151
152
153
154
155
156
157
158
159
160
161
162
163
164
165
166
167
168
169
170
171
172
173
174
175
176
177
178
179
180
181
182
183
184
185
186
187
188
189
190
191
192
193
194
195
196
197
198
199
200
201
202
203
204
205
206
207
208
209
210
211
212
213
214
215
216
217
218
219
220
221
222
223
224
225
226
227
228
229
230
231
232
233
234
235
236
237
238
239
240
241
242
243
244
245
246
247
248
249
250
251
252
253
254
SCALARS a0 double 1
LOOKUP_TABLE default
0.0002323521926595011
0.00014637270926046723
9.220902876370244e-05
5.8088048164875256e-05
3.65931773151168e-05
2.30522571909256e-05
1.4522012041218814e-05
9.1482943287792e-06
9.1482943287792e-06
1.4522012041218814e-05
9.1482943287792e-06
9.1482943287792e-06
2.30522571909256e-05
1.4522012041218814e-05
9.1482943287792e-06
9.1482943287792e-06
1.4522012041218814e-05
9.1482943287792e-06
9.1482943287792e-06
3.65931773151168e-05
2.30522571909256e-05
1.4522012041218814e-05
9.1482943287792e-06
9.1482943287792e-06
1.4522012041218814e-05
9.1482943287792e-06
9.1482943287792e-06
2.30522571909256e-05
1.4522012041218814e-05
9.1482943287792e-06
9.1482943287792e-06
1.4522012041218814e-05
9.1482943287792e-06
9.1482943287792e-06
5.8088048164875256e-05
3.65931773151168e-05
2.30522571909256e-05
1.4522012041218814e-05
9.1482943287792e-06
9.1482943287792e-06
1.4522012041218814e-05
9.1482943287792e-06
9.1482943287792e-06
2.30522571909256e-05
1.4522012041218814e-05
9.1482943287792e-06
9.1482943287792e-06
1.4522012041218814e-05
9.1482943287792e-06
9.1482943287792e-06
3.65931773151168e-05
2.30522571909256e-05
1.4522012041218814e-05
9.1482943287792e-06
9.1482943287792e-06
1.4522012041218814e-05
9.1482943287792e-06
9.1482943287792e-06
2.30522571909256e-05
1.4522012041218814e-05
9.1482943287792e-06
9.1482943287792e-06
1.4522012041218814e-05
9.1482943287792e-06
9.1482943287792e-06
9.220902876370244e-05
5.8088048164875256e-05
3.65931773151168e-05
2.30522571909256e-05
1.4522012041218814e-05
9.1482943287792e-06
9.1482943287792e-06
1.4522012041218814e-05
9.1482943287792e-06
9.1482943287792e-06
2.30522571909256e-05
1.4522012041218814e-05
9.1482943287792e-06
9.1482943287792e-06
1.4522012041218814e-05
9.1482943287792e-06
9.1482943287792e-06
3.65931773151168e-05
2.30522571909256e-05
1.4522012041218814e-05
9.1482943287792e-06
9.1482943287792e-06
1.4522012041218814e-05
9.1482943287792e-06
9.1482943287792e-06
2.30522571909256e-05
1.4522012041218814e-05
9.1482943287792e-06
9.1482943287792e-06
1.4522012041218814e-05
9.1482943287792e-06
9.1482943287792e-06
5.8088048164875256e-05
3.65931773151168e-05
2.30522571909256e-05
1.4522012041218814e-05
9.1482943287792e-06
9.1482943287792e-06
1.4522012041218814e-05
9.1482943287792e-06
9.1482943287792e-06
2.30522571909256e-05
1.4522012041218814e-05
9.1482943287792e-06
9.1482943287792e-06
1.4522012041218814e-05
9.1482943287792e-06
9.1482943287792e-06
3.65931773151168e-05
2.30522571909256e-05
1.4522012041218814e-05
9.1482943287792e-06
9.1482943287792e-06
1.4522012041218814e-05
9.1482943287792e-06
9.1482943287792e-06
2.30522571909256e-05
1.4522012041218814e-05
9.1482943287792e-06
9.1482943287792e-06
1.4522012041218814e-05
9.1482943287792e-06
9.1482943287792e-06
0.00014637270926046723
9.220902876370244e-05
5.8088048164875256e-05
3.65931773151168e-05
2.30522571909256e-05
1.4522012041218814e-05
9.1482943287792e-06
9.1482943287792e-06
1.4522012041218814e-05
9.1482943287792e-06
9.1482943287792e-06
2.30522571909256e-05
1.4522012041218814e-05
9.1482943287792e-06
9.1482943287792e-06
1.4522012041218814e-05
9.1482943287792e-06
9.1482943287792e-06
3.65931773151168e-05
2.30522571909256e-05
1.4522012041218814e-05
9.1482943287792e-06
9.1482943287792e-06
1.4522012041218814e-05
9.1482943287792e-06
9.1482943287792e-06
2.30522571909256e-05
1.4522012041218814e-05
9.1482943287792e-06
9.1482943287792e-06
1.4522012041218814e-05
9.1482943287792e-06
9.1482943287792e-06
5.8088048164875256e-05
3.65931773151168e-05
2.30522571909256e-05
1.4522012041218814e-05
9.1482943287792e-06
9.1482943287792e-06
1.4522012041218814e-05
9.1482943287792e-06
9.1482943287792e-06
2.30522571909256e-05
1.4522012041218814e-05
9.1482943287792e-06
9.1482943287792e-06
1.4522012041218814e-05
9.1482943287792e-06
9.1482943287792e-06
3.65931773151168e-05
2.30522571909256e-05
1.4522012041218814e-05
9.1482943287792e-06
9.1482943287792e-06
1.4522012041218814e-05
9.1482943287792e-06
9.1482943287792e-06
2.30522571909256e-05
1.4522012041218814e-05
9.1482943287792e-06
9.1482943287792e-06
1.4522012041218814e-05
9.1482943287792e-06
9.1482943287792e-06
9.220902876370244e-05
5.8088048164875256e-05
3.65931773151168e-05
2.30522571909256e-05
1.4522012041218814e-05
9.1482943287792e-06
9.1482943287792e-06
1.4522012041218814e-05
9.1482943287792e-06
9.1482943287792e-06
2.30522571909256e-05
1.4522012041218814e-05
9.1482943287792e-06
9.1482943287792e-06
1.4522012041218814e-05
9.1482943287792e-06
9.1482943287792e-06
3.65931773151168e-05
2.30522571909256e-05
1.4522012041218814e-05
9.1482943287792e-06
9.1482943287792e-06
1.4522012041218814e-05
9.1482943287792e-06
9.1482943287792e-06
2.30522571909256e-05
1.4522012041218814e-05
9.1482943287792e-06
9.1482943287792e-06
1.4522012041218814e-05
9.1482943287792e-06
9.1482943287792e-06
5.8088048164875256e-05
3.65931773151168e-05
2.30522571909256e-05
1.4522012041218814e-05
9.1482943287792e-06
9.1482943287792e-06
1.4522012041218814e-05
9.1482943287792e-06
9.1482943287792e-06
2.30522571909256e-05
1.4522012041218814e-05
9.1482943287792e-06
9.1482943287792e-06
1.4522012041218814e-05
9.1482943287792e-06
9.1482943287792e-06
3.65931773151168e-05
2.30522571909256e-05
1.4522012041218814e-05
9.1482943287792e-06
9.1482943287792e-06
1.4522012041218814e-05
9.1482943287792e-06
9.1482943287792e-06
2.30522571909256e-05
1.4522012041218814e-05
9.1482943287792e-06
9.1482943287792e-06
1.4522012041218814e-05
9.1482943287792e-06
9.1482943287792e-06
SCALARS E double 1
LOOKUP_TABLE default
500000.0
700000.0
700000.0
700000.0
700000.0
700000.0
700000.0
700000.0
700000.0
700000.0
700000.0
700000.0
700000.0
700000.0
700000.0
700000.0
700000.0
700000.0
700000.0
700000.0
700000.0
700000.0
700000.0
700000.0
700000.0
700000.0
700000.0
700000.0
700000.0
700000.0
700000.0
700000.0
700000.0
700000.0
700000.0
700000.0
700000.0
700000.0
700000.0
700000.0
700000.0
700000.0
700000.0
700000.0
700000.0
700000.0
700000.0
700000.0
700000.0
700000.0
700000.0
700000.0
700000.0
700000.0
700000.0
700000.0
700000.0
700000.0
700000.0
700000.0
700000.0
700000.0
700000.0
700000.0
700000.0
700000.0
700000.0
700000.0
700000.0
700000.0
700000.0
700000.0
700000.0
700000.0
700000.0
700000.0
700000.0
700000.0
700000.0
700000.0
700000.0
700000.0
700000.0
700000.0
700000.0
700000.0
700000.0
700000.0
700000.0
700000.0
700000.0
700000.0
700000.0
700000.0
700000.0
700000.0
700000.0
700000.0
700000.0
700000.0
700000.0
700000.0
700000.0
700000.0
700000.0
700000.0
700000.0
700000.0
700000.0
700000.0
700000.0
700000.0
700000.0
700000.0
700000.0
700000.0
700000.0
700000.0
700000.0
700000.0
700000.0
700000.0
700000.0
700000.0
700000.0
700000.0
700000.0
700000.0
700000.0
700000.0
700000.0
700000.0
700000.0
700000.0
700000.0
700000.0
700000.0
700000.0
700000.0
700000.0
700000.0
700000.0
700000.0
700000.0
700000.0
700000.0
700000.0
700000.0
700000.0
700000.0
700000.0
700000.0
700000.0
700000.0
700000.0
700000.0
700000.0
700000.0
700000.0
700000.0
700000.0
700000.0
700000.0
700000.0
700000.0
700000.0
700000.0
700000.0
700000.0
700000.0
700000.0
700000.0
700000.0
700000.0
700000.0
700000.0
700000.0
700000.0
700000.0
700000.0
700000.0
700000.0
700000.0
700000.0
700000.0
700000.0
700000.0
700000.0
700000.0
700000.0
700000.0
700000.0
700000.0
700000.0
700000.0
700000.0
700000.0
700000.0
700000.0
700000.0
700000.0
700000.0
700000.0
700000.0
700000.0
700000.0
700000.0
700000.0
700000.0
700000.0
700000.0
700000.0
700000.0
700000.0
700000.0
700000.0
700000.0
700000.0
700000.0
700000.0
700000.0
700000.0
700000.0
700000.0
700000.0
700000.0
700000.0
700000.0
700000.0
700000.0
700000.0
700000.0
700000.0
700000.0
700000.0
700000.0
700000.0
700000.0
700000.0
700000.0
700000.0
700000.0
700000.0
700000.0
700000.0
700000.0
700000.0
700000.0
700000.0
700000.0
700000.0
700000.0
700000.0
700000.0
700000.0
SCALARS h_wall double 1
LOOKUP_TABLE default
0.001032
0.00072
0.00072
0.00072
0.00072
0.00072
0.00072
0.00072
0.00072
0.00072
0.00072
0.00072
0.00072
0.00072
0.00072
0.00072
0.00072
0.00072
0.00072
0.00072
0.00072
0.00072
0.00072
0.00072
0.00072
0.00072
0.00072
0.00072
0.00072
0.00072
0.00072
0.00072
0.00072
0.00072
0.00072
0.00072
0.00072
0.00072
0.00072
0.00072
0.00072
0.00072
0.00072
0.00072
0.00072
0.00072
0.00072
0.00072
0.00072
0.00072
0.00072
0.00072
0.00072
0.00072
0.00072
0.00072
0.00072
0.00072
0.00072
0.00072
0.00072
0.00072
0.00072
0.00072
0.00072
0.00072
0.00072
0.00072
0.00072
0.00072
0.00072
0.00072
0.00072
0.00072
0.00072
0.00072
0.00072
0.00072
0.00072
0.00072
0.00072
0.00072
0.00072
0.00072
0.00072
0.00072
0.00072
0.00072
0.00072
0.00072
0.00072
0.00072
0.00072
0.00072
0.00072
0.00072
0.00072
0.00072
0.00072
0.00072
0.00072
0.00072
0.00072
0.00072
0.00072
0.00072
0.00072
0.00072
0.00072
0.00072
0.00072
0.00072
0.00072
0.00072
0.00072
0.00072
0.00072
0.00072
0.00072
0.00072
0.00072
0.00072
0.00072
0.00072
0.00072
0.00072
0.00072
0.00072
0.00072
0.00072
0.00072
0.00072
0.00072
0.00072
0.00072
0.00072
0.00072
0.00072
0.00072
0.00072
0.00072
0.00072
0.00072
0.00072
0.00072
0.00072
0.00072
0.00072
0.00072
0.00072
0.00072
0.00072
0.00072
0.00072
0.00072
0.00072
0.00072
0.00072
0.00072
0.00072
0.00072
0.00072
0.00072
0.00072
0.00072
0.00072
0.00072
0.00072
0.00072
0.00072
0.00072
0.00072
0.00072
0.00072
0.00072
0.00072
0.00072
0.00072
0.00072
0.00072
0.00072
0.00072
0.00072
0.00072
0.00072
0.00072
0.00072
0.00072
0.00072
0.00072
0.00072
0.00072
0.00072
0.00072
0.00072
0.00072
0.00072
0.00072
0.00072
0.00072
0.00072
0.00072
0.00072
0.00072
0.00072
0.00072
0.00072
0.00072
0.00072
0.00072
0.00072
0.00072
0.00072
0.00072
0.00072
0.00072
0.00072
0.00072
0.00072
0.00072
0.00072
0.00072
0.00072
0.00072
0.00072
0.00072
0.00072
0.00072
0.00072
0.00072
0.00072
0.00072
0.00072
0.00072
0.00072
0.00072
0.00072
0.00072
0.00072
0.00072
0.00072
0.00072
0.00072
0.00072
0.00072
0.00072
0.00072
0.00072
0.00072
0.00072
0.00072
0.00072
0.00072
0.00072
0.00072
SCALARS p_d double 1
LOOKUP_TABLE default
9460.0
9460.0
9460.0
9460.0
9460.0
9460.0
9460.0
9460.0
9460.0
9460.0
9460.0
9460.0
9460.0
9460.0
9460.0
9460.0
9460.0
9460.0
9460.0
9460.0
9460.0
9460.0
9460.0
9460.0
9460.0
9460.0
9460.0
9460.0
9460.0
9460.0
9460.0
9460.0
9460.0
9460.0
9460.0
9460.0
9460.0
9460.0
9460.0
9460.0
9460.0
9460.0
9460.0
9460.0
9460.0
9460.0
9460.0
9460.0
9460.0
9460.0
9460.0
9460.0
9460.0
9460.0
9460.0
9460.0
9460.0
9460.0
9460.0
9460.0
9460.0
9460.0
9460.0
9460.0
9460.0
9460.0
9460.0
9460.0
9460.0
9460.0
9460.0
9460.0
9460.0
9460.0
9460.0
9460.0
9460.0
9460.0
9460.0
9460.0
9460.0
9460.0
9460.0
9460.0
9460.0
9460.0
9460.0
9460.0
9460.0
9460.0
9460.0
9460.0
9460.0
9460.0
9460.0
9460.0
9460.0
9460.0
9460.0
9460.0
9460.0
9460.0
9460.0
9460.0
9460.0
9460.0
9460.0
9460.0
9460.0
9460.0
9460.0
9460.0
9460.0
9460.0
9460.0
9460.0
9460.0
9460.0
9460.0
9460.0
9460.0
9460.0
9460.0
9460.0
9460.0
9460.0
9460.0
9460.0
9460.0
9460.0
9460.0
9460.0
9460.0
9460.0
9460.0
9460.0
9460.0
9460.0
9460.0
9460.0
9460.0
9460.0
9460.0
9460.0
9460.0
9460.0
9460.0
9460.0
9460.0
9460.0
9460.0
9460.0
9460.0
9460.0
9460.0
9460.0
9460.0
9460.0
9460.0
9460.0
9460.0
9460.0
9460.0
9460.0
9460.0
9460.0
9460.0
9460.0
9460.0
9460.0
9460.0
9460.0
9460.0
9460.0
9460.0
9460.0
9460.0
9460.0
9460.0
9460.0
9460.0
9460.0
9460.0
9460.0
9460.0
9460.0
9460.0
9460.0
9460.0
9460.0
9460.0
9460.0
9460.0
9460.0
9460.0
9460.0
9460.0
9460.0
9460.0
9460.0
9460.0
9460.0
9460.0
9460.0
9460.0
9460.0
9460.0
9460.0
9460.0
9460.0
9460.0
9460.0
9460.0
9460.0
9460.0
9460.0
9460.0
9460.0
9460.0
9460.0
9460.0
9460.0
9460.0
9460.0
9460.0
9460.0
9460.0
9460.0
9460.0
9460.0
9460.0
9460.0
9460.0
9460.0
9460.0
9460.0
9460.0
9460.0
9460.0
9460.0
9460.0
9460.0
9460.0
9460.0
9460.0
9460.0
9460.0
9460.0
9460.0
9460.0
9460.0
9460.0
9460.0
9460.0
9460.0
SCALARS p0 double 1
LOOKUP_TABLE default
0.0
0.0
0.0
0.0
0.0
0.0
0.0
0.0
0.0
0.0
0.0
0.0
0.0
0.0
0.0
0.0
0.0
0.0
0.0
0.0
0.0
0.0
0.0
0.0
0.0
0.0
0.0
0.0
0.0
0.0
0.0
0.0
0.0
0.0
0.0
0.0
0.0
0.0
0.0
0.0
0.0
0.0
0.0
0.0
0.0
0.0
0.0
0.0
0.0
0.0
0.0
0.0
0.0
0.0
0.0
0.0
0.0
0.0
0.0
0.0
0.0
0.0
0.0
0.0
0.0
0.0
0.0
0.0
0.0
0.0
0.0
0.0
0.0
0.0
0.0
0.0
0.0
0.0
0.0
0.0
0.0
0.0
0.0
0.0
0.0
0.0
0.0
0.0
0.0
0.0
0.0
0.0
0.0
0.0
0.0
0.0
0.0
0.0
0.0
0.0
0.0
0.0
0.0
0.0
0.0
0.0
0.0
0.0
0.0
0.0
0.0
0.0
0.0
0.0
0.0
0.0
0.0
0.0
0.0
0.0
0.0
0.0
0.0
0.0
0.0
0.0
0.0
0.0
0.0
0.0
0.0
0.0
0.0
0.0
0.0
0.0
0.0
0.0
0.0
0.0
0.0
0.0
0.0
0.0
0.0
0.0
0.0
0.0
0.0
0.0
0.0
0.0
0.0
0.0
0.0
0.0
0.0
0.0
0.0
0.0
0.0
0.0
0.0
0.0
0.0
0.0
0.0
0.0
0.0
0.0
0.0
0.0
0.0
0.0
0.0
0.0
0.0
0.0
0.0
0.0
0.0
0.0
0.0
0.0
0.0
0.0
0.0
0.0
0.0
0.0
0.0
0.0
0.0
0.0
0.0
0.0
0.0
0.0
0.0
0.0
0.0
0.0
0.0
0.0
0.0
0.0
0.0
0.0
0.0
0.0
0.0
0.0
0.0
0.0
0.0
0.0
0.0
0.0
0.0
0.0
0.0
0.0
0.0
0.0
0.0
0.0
0.0
0.0
0.0
0.0
0.0
0.0
0.0
0.0
0.0
0.0
0.0
0.0
0.0
0.0
0.0
0.0
0.0
0.0
0.0
0.0
0.0
0.0
0.0
0.0
0.0
0.0
0.0
0.0
0.0
SCALARS L double 1
LOOKUP_TABLE default
0.086
0.085
0.085
0.085
0.085
0.085
0.085
0.085
0.085
0.085
0.085
0.085
0.085
0.085
0.085
0.085
0.085
0.085
0.085
0.085
0.085
0.085
0.085
0.085
0.085
0.085
0.085
0.085
0.085
0.085
0.085
0.085
0.085
0.085
0.085
0.085
0.085
0.085
0.085
0.085
0.085
0.085
0.085
0.085
0.085
0.085
0.085
0.085
0.085
0.085
0.085
0.085
0.085
0.085
0.085
0.085
0.085
0.085
0.085
0.085
0.085
0.085
0.085
0.085
0.085
0.085
0.085
0.085
0.085
0.085
0.085
0.085
0.085
0.085
0.085
0.085
0.085
0.085
0.085
0.085
0.085
0.085
0.085
0.085
0.085
0.085
0.085
0.085
0.085
0.085
0.085
0.085
0.085
0.085
0.085
0.085
0.085
0.085
0.085
0.085
0.085
0.085
0.085
0.085
0.085
0.085
0.085
0.085
0.085
0.085
0.085
0.085
0.085
0.085
0.085
0.085
0.085
0.085
0.085
0.085
0.085
0.085
0.085
0.085
0.085
0.085
0.085
0.085
0.085
0.085
0.085
0.085
0.085
0.085
0.085
0.085
0.085
0.085
0.085
0.085
0.085
0.085
0.085
0.085
0.085
0.085
0.085
0.085
0.085
0.085
0.085
0.085
0.085
0.085
0.085
0.085
0.085
0.085
0.085
0.085
0.085
0.085
0.085
0.085
0.085
0.085
0.085
0.085
0.085
0.085
0.085
0.085
0.085
0.085
0.085
0.085
0.085
0.085
0.085
0.085
0.085
0.085
0.085
0.085
0.085
0.085
0.085
0.085
0.085
0.085
0.085
0.085
0.085
0.085
0.085
0.085
0.085
0.085
0.085
0.085
0.085
0.085
0.085
0.085
0.085
0.085
0.085
0.085
0.085
0.085
0.085
0.085
0.085
0.085
0.085
0.085
0.085
0.085
0.085
0.085
0.085
0.085
0.085
0.085
0.085
0.085
0.085
0.085
0.085
0.085
0.085
0.085
0.085
0.085
0.085
0.085
0.085
0.085
0.085
0.085
0.085
0.085
0.085
0.085
0.085
0.085
0.085
0.085
0.085
0.085
0.085
0.085
0.085
0.085
0.085
SCALARS a_d double 1
LOOKUP_TABLE default
0.0002323521926595011
0.00014637270926046723
9.220902876370244e-05
5.8088048164875256e-05
3.65931773151168e-05
2.30522571909256e-05
1.4522012041218814e-05
9.1482943287792e-06
9.1482943287792e-06
1.4522012041218814e-05
9.1482943287792e-06
9.1482943287792e-06
2.30522571909256e-05
1.4522012041218814e-05
9.1482943287792e-06
9.1482943287792e-06
1.4522012041218814e-05
9.1482943287792e-06
9.1482943287792e-06
3.65931773151168e-05
2.30522571909256e-05
1.4522012041218814e-05
9.1482943287792e-06
9.1482943287792e-06
1.4522012041218814e-05
9.1482943287792e-06
9.1482943287792e-06
2.30522571909256e-05
1.4522012041218814e-05
9.1482943287792e-06
9.1482943287792e-06
1.4522012041218814e-05
9.1482943287792e-06
9.1482943287792e-06
5.8088048164875256e-05
3.65931773151168e-05
2.30522571909256e-05
1.4522012041218814e-05
9.1482943287792e-06
9.1482943287792e-06
1.4522012041218814e-05
9.1482943287792e-06
9.1482943287792e-06
2.30522571909256e-05
1.4522012041218814e-05
9.1482943287792e-06
9.1482943287792e-06
1.4522012041218814e-05
9.1482943287792e-06
9.1482943287792e-06
3.65931773151168e-05
2.30522571909256e-05
1.4522012041218814e-05
9.1482943287792e-06
9.1482943287792e-06
1.4522012041218814e-05
9.1482943287792e-06
9.1482943287792e-06
2.30522571909256e-05
1.4522012041218814e-05
9.1482943287792e-06
9.1482943287792e-06
1.4522012041218814e-05
9.1482943287792e-06
9.1482943287792e-06
9.220902876370244e-05
5.8088048164875256e-05
3.65931773151168e-05
2.30522571909256e-05
1.4522012041218814e-05
9.1482943287792e-06
9.1482943287792e-06
1.4522012041218814e-05
9.1482943287792e-06
9.1482943287792e-06
2.30522571909256e-05
1.4522012041218814e-05
9.1482943287792e-06
9.1482943287792e-06
1.4522012041218814e-05
9.1482943287792e-06
9.1482943287792e-06
3.65931773151168e-05
2.30522571909256e-05
1.4522012041218814e-05
9.1482943287792e-06
9.1482943287792e-06
1.4522012041218814e-05
9.1482943287792e-06
9.1482943287792e-06
2.30522571909256e-05
1.4522012041218814e-05
9.1482943287792e-06
9.1482943287792e-06
1.4522012041218814e-05
9.1482943287792e-06
9.1482943287792e-06
5.8088048164875256e-05
3.65931773151168e-05
2.30522571909256e-05
1.4522012041218814e-05
9.1482943287792e-06
9.1482943287792e-06
1.4522012041218814e-05
9.1482943287792e-06
9.1482943287792e-06
2.30522571909256e-05
1.4522012041218814e-05
9.1482943287792e-06
9.1482943287792e-06
1.4522012041218814e-05
9.1482943287792e-06
9.1482943287792e-06
3.65931773151168e-05
2.30522571909256e-05
1.4522012041218814e-05
9.1482943287792e-06
9.1482943287792e-06
1.4522012041218814e-05
9.1482943287792e-06
9.1482943287792e-06
2.30522571909256e-05
1.4522012041218814e-05
9.1482943287792e-06
9.1482943287792e-06
1.4522012041218814e-05
9.1482943287792e-06
9.1482943287792e-06
0.00014637270926046723
9.220902876370244e-05
5.8088048164875256e-05
3.65931773151168e-05
2.30522571909256e-05
1.4522012041218814e-05
9.1482943287792e-06
9.1482943287792e-06
1.4522012041218814e-05
9.1482943287792e-06
9.1482943287792e-06
2.30522571909256e-05
1.4522012041218814e-05
9.1482943287792e-06
9.1482943287792e-06
1.4522012041218814e-05
9.1482943287792e-06
9.1482943287792e-06
3.65931773151168e-05
2.30522571909256e-05
1.4522012041218814e-05
9.1482943287792e-06
9.1482943287792e-06
1.4522012041218814e-05
9.1482943287792e-06
9.1482943287792e-06
2.30522571909256e-05
1.4522012041218814e-05
9.1482943287792e-06
9.1482943287792e-06
1.4522012041218814e-05
9.1482943287792e-06
9.1482943287792e-06
5.8088048164875256e-05
3.65931773151168e-05
2.30522571909256e-05
1.4522012041218814e-05
9.1482943287792e-06
9.1482943287792e-06
1.4522012041218814e-05
9.1482943287792e-06
9.1482943287792e-06
2.30522571909256e-05
1.4522012041218814e-05
9.1482943287792e-06
9.1482943287792e-06
1.4522012041218814e-05
9.1482943287792e-06
9.1482943287792e-06
3.65931773151168e-05
2.30522571909256e-05
1.4522012041218814e-05
9.1482943287792e-06
9.1482943287792e-06
1.4522012041218814e-05
9.1482943287792e-06
9.1482943287792e-06
2.30522571909256e-05
1.4522012041218814e-05
9.1482943287792e-06
9.1482943287792e-06
1.4522012041218814e-05
9.1482943287792e-06
9.1482943287792e-06
9.220902876370244e-05
5.8088048164875256e-05
3.65931773151168e-05
2.30522571909256e-05
1.4522012041218814e-05
9.1482943287792e-06
9.1482943287792e-06
1.4522012041218814e-05
9.1482943287792e-06
9.1482943287792e-06
2.30522571909256e-05
1.4522012041218814e-05
9.1482943287792e-06
9.1482943287792e-06
1.4522012041218814e-05
9.1482943287792e-06
9.1482943287792e-06
3.65931773151168e-05
2.30522571909256e-05
1.4522012041218814e-05
9.1482943287792e-06
9.1482943287792e-06
1.4522012041218814e-05
9.1482943287792e-06
9.1482943287792e-06
2.30522571909256e-05
1.4522012041218814e-05
9.1482943287792e-06
9.1482943287792e-06
1.4522012041218814e-05
9.1482943287792e-06
9.1482943287792e-06
5.8088048164875256e-05
3.65931773151168e-05
2.30522571909256e-05
1.4522012041218814e-05
9.1482943287792e-06
9.1482943287792e-06
1.4522012041218814e-05
9.1482943287792e-06
9.1482943287792e-06
2.30522571909256e-05
1.4522012041218814e-05
9.1482943287792e-06
9.1482943287792e-06
1.4522012041218814e-05
9.1482943287792e-06
9.1482943287792e-06
3.65931773151168e-05
2.30522571909256e-05
1.4522012041218814e-05
9.1482943287792e-06
9.1482943287792e-06
1.4522012041218814e-05
9.1482943287792e-06
9.1482943287792e-06
2.30522571909256e-05
1.4522012041218814e-05
9.1482943287792e-06
9.1482943287792e-06
1.4522012041218814e-05
9.1482943287792e-06
9.1482943287792e-06
SCALARS r_d double 1
LOOKUP_TABLE default
0.0086
0.006825824523463257
0.005417660514547954
0.004299999999999999
0.0034129122617316283
0.0027088302572739766
0.0021499999999999996
0.0017064561308658141
0.0017064561308658141
0.0021499999999999996
0.0017064561308658141
0.0017064561308658141
0.0027088302572739766
0.0021499999999999996
0.0017064561308658141
0.0017064561308658141
0.0021499999999999996
0.0017064561308658141
0.0017064561308658141
0.0034129122617316283
0.0027088302572739766
0.0021499999999999996
0.0017064561308658141
0.0017064561308658141
0.0021499999999999996
0.0017064561308658141
0.0017064561308658141
0.0027088302572739766
0.0021499999999999996
0.0017064561308658141
0.0017064561308658141
0.0021499999999999996
0.0017064561308658141
0.0017064561308658141
0.004299999999999999
0.0034129122617316283
0.0027088302572739766
0.0021499999999999996
0.0017064561308658141
0.0017064561308658141
0.0021499999999999996
0.0017064561308658141
0.0017064561308658141
0.0027088302572739766
0.0021499999999999996
0.0017064561308658141
0.0017064561308658141
0.0021499999999999996
0.0017064561308658141
0.0017064561308658141
0.0034129122617316283
0.0027088302572739766
0.0021499999999999996
0.0017064561308658141
0.0017064561308658141
0.0021499999999999996
0.0017064561308658141
0.0017064561308658141
0.0027088302572739766
0.0021499999999999996
0.0017064561308658141
0.0017064561308658141
0.0021499999999999996
0.0017064561308658141
0.0017064561308658141
0.005417660514547954
0.004299999999999999
0.0034129122617316283
0.0027088302572739766
0.0021499999999999996
0.0017064561308658141
0.0017064561308658141
0.0021499999999999996
0.0017064561308658141
0.0017064561308658141
0.0027088302572739766
0.0021499999999999996
0.0017064561308658141
0.0017064561308658141
0.0021499999999999996
0.0017064561308658141
0.0017064561308658141
0.0034129122617316283
0.0027088302572739766
0.0021499999999999996
0.0017064561308658141
0.0017064561308658141
0.0021499999999999996
0.0017064561308658141
0.0017064561308658141
0.0027088302572739766
0.0021499999999999996
0.0017064561308658141
0.0017064561308658141
0.0021499999999999996
0.0017064561308658141
0.0017064561308658141
0.004299999999999999
0.0034129122617316283
0.0027088302572739766
0.0021499999999999996
0.0017064561308658141
0.0017064561308658141
0.0021499999999999996
0.0017064561308658141
0.0017064561308658141
0.0027088302572739766
0.0021499999999999996
0.0017064561308658141
0.0017064561308658141
0.0021499999999999996
0.0017064561308658141
0.0017064561308658141
0.0034129122617316283
0.0027088302572739766
0.0021499999999999996
0.0017064561308658141
0.0017064561308658141
0.0021499999999999996
0.0017064561308658141
0.0017064561308658141
0.0027088302572739766
0.0021499999999999996
0.0017064561308658141
0.0017064561308658141
0.0021499999999999996
0.0017064561308658141
0.0017064561308658141
0.006825824523463257
0.005417660514547954
0.004299999999999999
0.0034129122617316283
0.0027088302572739766
0.0021499999999999996
0.0017064561308658141
0.0017064561308658141
0.0021499999999999996
0.0017064561308658141
0.0017064561308658141
0.0027088302572739766
0.0021499999999999996
0.0017064561308658141
0.0017064561308658141
0.0021499999999999996
0.0017064561308658141
0.0017064561308658141
0.0034129122617316283
0.0027088302572739766
0.0021499999999999996
0.0017064561308658141
0.0017064561308658141
0.0021499999999999996
0.0017064561308658141
0.0017064561308658141
0.0027088302572739766
0.0021499999999999996
0.0017064561308658141
0.0017064561308658141
0.0021499999999999996
0.0017064561308658141
0.0017064561308658141
0.004299999999999999
0.0034129122617316283
0.0027088302572739766
0.0021499999999999996
0.0017064561308658141
0.0017064561308658141
0.0021499999999999996
0.0017064561308658141
0.0017064561308658141
0.0027088302572739766
0.0021499999999999996
0.0017064561308658141
0.0017064561308658141
0.0021499999999999996
0.0017064561308658141
0.0017064561308658141
0.0034129122617316283
0.0027088302572739766
0.0021499999999999996
0.0017064561308658141
0.0017064561308658141
0.0021499999999999996
0.0017064561308658141
0.0017064561308658141
0.0027088302572739766
0.0021499999999999996
0.0017064561308658141
0.0017064561308658141
0.0021499999999999996
0.0017064561308658141
0.0017064561308658141
0.005417660514547954
0.004299999999999999
0.0034129122617316283
0.0027088302572739766
0.0021499999999999996
0.0017064561308658141
0.0017064561308658141
0.0021499999999999996
0.0017064561308658141
0.0017064561308658141
0.0027088302572739766
0.0021499999999999996
0.0017064561308658141
0.0017064561308658141
0.0021499999999999996
0.0017064561308658141
0.0017064561308658141
0.0034129122617316283
0.0027088302572739766
0.0021499999999999996
0.0017064561308658141
0.0017064561308658141
0.0021499999999999996
0.0017064561308658141
0.0017064561308658141
0.0027088302572739766
0.0021499999999999996
0.0017064561308658141
0.0017064561308658141
0.0021499999999999996
0.0017064561308658141
0.0017064561308658141
0.004299999999999999
0.0034129122617316283
0.0027088302572739766
0.0021499999999999996
0.0017064561308658141
0.0017064561308658141
0.0021499999999999996
0.0017064561308658141
0.0017064561308658141
0.0027088302572739766
0.0021499999999999996
0.0017064561308658141
0.0017064561308658141
0.0021499999999999996
0.0017064561308658141
0.0017064561308658141
0.0034129122617316283
0.0027088302572739766
0.0021499999999999996
0.0017064561308658141
0.0017064561308658141
0.0021499999999999996
0.0017064561308658141
0.0017064561308658141
0.0027088302572739766
0.0021499999999999996
0.0017064561308658141
0.0017064561308658141
0.0021499999999999996
0.0017064561308658141
0.0017064561308658141
POINT_DATA 256
SCALARS boundary_id int 1
LOOKUP_TABLE default
0
255
255
255
255
255
255
255
1
2
255
3
4
255
255
5
6
255
7
8
255
255
255
9
10
255
11
12
255
255
13
14
255
15
16
255
255
255
255
17
18
255
19
20
255
255
21
22
255
23
24
255
255
255
25
26
255
27
28
255
255
29
30
255
31
32
255
255
255
255
255
33
34
255
35
36
255
255
37
38
255
39
40
255
255
255
41
42
255
43
44
255
255
45
46
255
47
48
255
255
255
255
49
50
255
51
52
255
255
53
54
255
55
56
255
255
255
57
58
255
59
60
255
255
61
62
255
63
64
255
255
255
255
255
255
65
66
255
67
68
255
255
69
70
255
71
72
255
255
255
73
74
255
75
76
255
255
77
78
255
79
80
255
255
255
255
81
82
255
83
84
255
255
85
86
255
87
88
255
255
255
89
90
255
91
92
255
255
93
94
255
95
96
255
255
255
255
255
97
98
255
99
100
255
255
101
102
255
103
104
255
255
255
105
106
255
107
108
255
255
109
110
255
111
112
255
255
255
255
113
114
255
115
116
255
255
117
118
255
119
120
255
255
255
121
122
255
123
124
255
255
125
126
255
127
128
SCALARS R1 double 1
LOOKUP_TABLE default
0.0
0.0
0.0
0.0
0.0
0.0
0.0
0.0
68123000.0
68123000.0
0.0
68123000.0
68123000.0
0.0
0.0
68123000.0
68123000.0
0.0
68123000.0
68123000.0
0.0
0.0
0.0
68123000.0
68123000.0
0.0
68123000.0
68123000.0
0.0
0.0
68123000.0
68123000.0
0.0
68123000.0
68123000.0
0.0
0.0
0.0
0.0
68123000.0
68123000.0
0.0
68123000.0
68123000.0
0.0
0.0
68123000.0
68123000.0
0.0
68123000.0
68123000.0
0.0
0.0
0.0
68123000.0
68123000.0
0.0
68123000.0
68123000.0
0.0
0.0
68123000.0
68123000.0
0.0
68123000.0
68123000.0
0.0
0.0
0.0
0.0
0.0
68123000.0
68123000.0
0.0
68123000.0
68123000.0
0.0
0.0
68123000.0
68123000.0
0.0
68123000.0
68123000.0
0.0
0.0
0.0
68123000.0
68123000.0
0.0
68123000.0
68123000.0
0.0
0.0
68123000.0
68123000.0
0.0
68123000.0
68123000.0
0.0
0.0
0.0
0.0
68123000.0
68123000.0
0.0
68123000.0
68123000.0
0.0
0.0
68123000.0
68123000.0
0.0
68123000.0
68123000.0
0.0
0.0
0.0
68123000.0
68123000.0
0.0
68123000.0
68123000.0
0.0
0.0
68123000.0
68123000.0
0.0
68123000.0
68123000.0
0.0
0.0
0.0
0.0
0.0
0.0
68123000.0
68123000.0
0.0
68123000.0
68123000.0
0.0
0.0
68123000.0
68123000.0
0.0
68123000.0
68123000.0
0.0
0.0
0.0
68123000.0
68123000.0
0.0
68123000.0
68123000.0
0.0
0.0
68123000.0
68123000.0
0.0
68123000.0
68123000.0
0.0
0.0
0.0
0.0
68123000.0
68123000.0
0.0
68123000.0
68123000.0
0.0
0.0
68123000.0
68123000.0
0.0
68123000.0
68123000.0
0.0
0.0
0.0
68123000.0
68123000.0
0.0
68123000.0
68123000.0
0.0
0.0
68123000.0
68123000.0
0.0
68123000.0
68123000.0
0.0
0.0
0.0
0.0
0.0
68123000.0
68123000.0
0.0
68123000.0
68123000.0
0.0
0.0
68123000.0
68123000.0
0.0
68123000.0
68123000.0
0.0
0.0
0.0
68123000.0
68123000.0
0.0
68123000.0
68123000.0
0.0
0.0
68123000.0
68123000.0
0.0
68123000.0
68123000.0
0.0
0.0
0.0
0.0
68123000.0
68123000.0
0.0
68123000.0
68123000.0
0.0
0.0
68123000.0
68123000.0
0.0
68123000.0
68123000.0
0.0
0.0
0.0
68123000.0
68123000.0
0.0
68123000.0
68123000.0
0.0
0.0
68123000.0
68123000.0
0.0
68123000.0
68123000.0
SCALARS R2 double 1
LOOKUP_TABLE default
0.0
0.0
0.0
0.0
0.0
0.0
0.0
0.0
3101300000.0
3101300000.0
0.0
3101300000.0
3101300000.0
0.0
0.0
3101300000.0
3101300000.0
0.0
3101300000.0
3101300000.0
0.0
0.0
0.0
3101300000.0
3101300000.0
0.0
3101300000.0
3101300000.0
0.0
0.0
3101300000.0
3101300000.0
0.0
3101300000.0
3101300000.0
0.0
0.0
0.0
0.0
3101300000.0
3101300000.0
0.0
3101300000.0
3101300000.0
0.0
0.0
3101300000.0
3101300000.0
0.0
3101300000.0
3101300000.0
0.0
0.0
0.0
3101300000.0
3101300000.0
0.0
3101300000.0
3101300000.0
0.0
0.0
3101300000.0
3101300000.0
0.0
3101300000.0
3101300000.0
0.0
0.0
0.0
0.0
0.0
3101300000.0
3101300000.0
0.0
3101300000.0
3101300000.0
0.0
0.0
3101300000.0
3101300000.0
0.0
3101300000.0
3101300000.0
0.0
0.0
0.0
3101300000.0
3101300000.0
0.0
3101300000.0
3101300000.0
0.0
0.0
3101300000.0
3101300000.0
0.0
3101300000.0
3101300000.0
0.0
0.0
0.0
0.0
3101300000.0
3101300000.0
0.0
3101300000.0
3101300000.0
0.0
0.0
3101300000.0
3101300000.0
0.0
3101300000.0
3101300000.0
0.0
0.0
0.0
3101300000.0
3101300000.0
0.0
3101300000.0
3101300000.0
0.0
0.0
3101300000.0
3101300000.0
0.0
3101300000.0
3101300000.0
0.0
0.0
0.0
0.0
0.0
0.0
3101300000.0
3101300000.0
0.0
3101300000.0
3101300000.0
0.0
0.0
3101300000.0
3101300000.0
0.0
3101300000.0
3101300000.0
0.0
0.0
0.0
3101300000.0
3101300000.0
0.0
3101300000.0
3101300000.0
0.0
0.0
3101300000.0
3101300000.0
0.0
3101300000.0
3101300000.0
0.0
0.0
0.0
0.0
3101300000.0
3101300000.0
0.0
3101300000.0
3101300000.0
0.0
0.0
3101300000.0
3101300000.0
0.0
3101300000.0
3101300000.0
0.0
0.0
0.0
3101300000.0
3101300000.0
0.0
3101300000.0
3101300000.0
0.0
0.0
3101300000.0
3101300000.0
0.0
3101300000.0
3101300000.0
0.0
0.0
0.0
0.0
0.0
3101300000.0
3101300000.0
0.0
3101300000.0
3101300000.0
0.0
0.0
3101300000.0
3101300000.0
0.0
3101300000.0
3101300000.0
0.0
0.0
0.0
3101300000.0
3101300000.0
0.0
3101300000.0
3101300000.0
0.0
0.0
3101300000.0
3101300000.0
0.0
3101300000.0
3101300000.0
0.0
0.0
0.0
0.0
3101300000.0
3101300000.0
0.0
3101300000.0
3101300000.0
0.0
0.0
3101300000.0
3101300000.0
0.0
3101300000.0
3101300000.0
0.0
0.0
0.0
3101300000.0
3101300000.0
0.0
3101300000.0
3101300000.0
0.0
0.0
3101300000.0
3101300000.0
0.0
3101300000.0
3101300000.0
SCALARS C double 1
LOOKUP_TABLE default
0.0
0.0
0.0
0.0
0.0
0.0
0.0
0.0
3.6664e-10
3.6664e-10
0.0
3.6664e-10
3.6664e-10
0.0
0.0
3.6664e-10
3.6664e-10
0.0
3.6664e-10
3.6664e-10
0.0
0.0
0.0
3.6664e-10
3.6664e-10
0.0
3.6664e-10
3.6664e-10
0.0
0.0
3.6664e-10
3.6664e-10
0.0
3.6664e-10
3.6664e-10
0.0
0.0
0.0
0.0
3.6664e-10
3.6664e-10
0.0
3.6664e-10
3.6664e-10
0.0
0.0
3.6664e-10
3.6664e-10
0.0
3.6664e-10
3.6664e-10
0.0
0.0
0.0
3.6664e-10
3.6664e-10
0.0
3.6664e-10
3.6664e-10
0.0
0.0
3.6664e-10
3.6664e-10
0.0
3.6664e-10
3.6664e-10
0.0
0.0
0.0
0.0
0.0
3.6664e-10
3.6664e-10
0.0
3.6664e-10
3.6664e-10
0.0
0.0
3.6664e-10
3.6664e-10
0.0
3.6664e-10
3.6664e-10
0.0
0.0
0.0
3.6664e-10
3.6664e-10
0.0
3.6664e-10
3.6664e-10
0.0
0.0
3.6664e-10
3.6664e-10
0.0
3.6664e-10
3.6664e-10
0.0
0.0
0.0
0.0
3.6664e-10
3.6664e-10
0.0
3.6664e-10
3.6664e-10
0.0
0.0
3.6664e-10
3.6664e-10
0.0
3.6664e-10
3.6664e-10
0.0
0.0
0.0
3.6664e-10
3.6664e-10
0.0
3.6664e-10
3.6664e-10
0.0
0.0
3.6664e-10
3.6664e-10
0.0
3.6664e-10
3.6664e-10
0.0
0.0
0.0
0.0
0.0
0.0
3.6664e-10
3.6664e-10
0.0
3.6664e-10
3.6664e-10
0.0
0.0
3.6664e-10
3.6664e-10
0.0
3.6664e-10
3.6664e-10
0.0
0.0
0.0
3.6664e-10
3.6664e-10
0.0
3.6664e-10
3.6664e-10
0.0
0.0
3.6664e-10
3.6664e-10
0.0
3.6664e-10
3.6664e-10
0.0
0.0
0.0
0.0
3.6664e-10
3.6664e-10
0.0
3.6664e-10
3.6664e-10
0.0
0.0
3.6664e-10
3.6664e-10
0.0
3.6664e-10
3.6664e-10
0.0
0.0
0.0
3.6664e-10
3.6664e-10
0.0
3.6664e-10
3.6664e-10
0.0
0.0
3.6664e-10
3.6664e-10
0.0
3.6664e-10
3.6664e-10
0.0
0.0
0.0
0.0
0.0
3.6664e-10
3.6664e-10
0.0
3.6664e-10
3.6664e-10
0.0
0.0
3.6664e-10
3.6664e-10
0.0
3.6664e-10
3.6664e-10
0.0
0.0
0.0
3.6664e-10
3.6664e-10
0.0
3.6664e-10
3.6664e-10
0.0
0.0
3.6664e-10
3.6664e-10
0.0
3.6664e-10
3.6664e-10
0.0
0.0
0.0
0.0
3.6664e-10
3.6664e-10
0.0
3.6664e-10
3.6664e-10
0.0
0.0
3.6664e-10
3.6664e-10
0.0
3.6664e-10
3.6664e-10
0.0
0.0
0.0
3.6664e-10
3.6664e-10
0.0
3.6664e-10
3.6664e-10
0.0
0.0
3.6664e-10
3.6664e-10
0.0
3.6664e-10
3.6664e-10
SCALARS P_out double 1
LOOKUP_TABLE default
0.0
0.0
0.0
0.0
0.0
0.0
0.0
0.0
0.0
0.0
0.0
0.0
0.0
0.0
0.0
0.0
0.0
0.0
0.0
0.0
0.0
0.0
0.0
0.0
0.0
0.0
0.0
0.0
0.0
0.0
0.0
0.0
0.0
0.0
0.0
0.0
0.0
0.0
0.0
0.0
0.0
0.0
0.0
0.0
0.0
0.0
0.0
0.0
0.0
0.0
0.0
0.0
0.0
0.0
0.0
0.0
0.0
0.0
0.0
0.0
0.0
0.0
0.0
0.0
0.0
0.0
0.0
0.0
0.0
0.0
0.0
0.0
0.0
0.0
0.0
0.0
0.0
0.0
0.0
0.0
0.0
0.0
0.0
0.0
0.0
0.0
0.0
0.0
0.0
0.0
0.0
0.0
0.0
0.0
0.0
0.0
0.0
0.0
0.0
0.0
0.0
0.0
0.0
0.0
0.0
0.0
0.0
0.0
0.0
0.0
0.0
0.0
0.0
0.0
0.0
0.0
0.0
0.0
0.0
0.0
0.0
0.0
0.0
0.0
0.0
0.0
0.0
0.0
0.0
0.0
0.0
0.0
0.0
0.0
0.0
0.0
0.0
0.0
0.0
0.0
0.0
0.0
0.0
0.0
0.0
0.0
0.0
0.0
0.0
0.0
0.0
0.0
0.0
0.0
0.0
0.0
0.0
0.0
0.0
0.0
0.0
0.0
0.0
0.0
0.0
0.0
0.0
0.0
0.0
0.0
0.0
0.0
0.0
0.0
0.0
0.0
0.0
0.0
0.0
0.0
0.0
0.0
0.0
0.0
0.0
0.0
0.0
0.0
0.0
0.0
0.0
0.0
0.0
0.0
0.0
0.0
0.0
0.0
0.0
0.0
0.0
0.0
0.0
0.0
0.0
0.0
0.0
0.0
0.0
0.0
0.0
0.0
0.0
0.0
0.0
0.0
0.0
0.0
0.0
0.0
0.0
0.0
0.0
0.0
0.0
0.0
0.0
0.0
0.0
0.0
0.0
0.0
0.0
0.0
0.0
0.0
0.0
0.0
0.0
0.0
0.0
0.0
0.0
0.0
0.0
0.0
0.0
0.0
0.0
0.0
0.0
0.0
0.0
0.0
0.0
0.0
