# vtk DataFile Version 3.0
svVascularize vessel network
ASCII
DATASET UNSTRUCTURED_GRID

POINTS 114 double
2.344280697664014e-03 -1.849670403207382e-03 5.000000000000000e-01
2.886240056586995e-01 4.722203706779913e-01 -3.790629730059374e-01
-6.832384222377679e-03 -1.430405296177384e-03 3.956985482396003e-01
-4.589000701994386e-01 -4.910945552738691e-01 -4.130157067215832e-01
-1.049421900146770e-01 -2.217834035401754e-01 -9.069710470306237e-02
6.718164949244443e-02 -2.679118508656851e-01 -4.165389491394897e-01
-3.949279324288588e-02 -1.428513936804418e-01 1.686119944842816e-01
1.824782659775992e-02 -3.533394283784693e-01 1.291869232853143e-01
-2.239490350377746e-02 7.277811074097347e-03 4.541914978445397e-01
-4.229363117440332e-01 1.775244894720317e-01 3.737981444119053e-01
-1.654724821882420e-01 -2.330250641632190e-01 -1.476159338139763e-01
-2.738091430776590e-01 -1.219803915046850e-01 -2.562675012028579e-01
1.063887897145303e-01 9.131546123388264e-02 2.466161565874826e-01
2.885378450400115e-01 1.210537315414512e-01 2.057263887604266e-01
3.140545151450656e-02 -2.778800405334763e-01 1.645746976617965e-01
2.273388819694484e-01 -4.751576822978465e-01 2.166492155023253e-01
-2.744506762448672e-01 1.894026923433425e-01 4.241773178857089e-01
-3.743254366578856e-01 4.094999130674937e-01 4.528748413233152e-01
-3.043143337598060e-01 1.827408928371033e-01 3.984862553131215e-01
-3.107829858387299e-01 1.654275154987993e-01 3.351323958366546e-01
8.668816703322793e-02 -3.045987582423026e-01 1.486450208195062e-01
3.122245922677914e-01 -2.986955121306720e-01 -3.791733320534052e-02
-8.682222675848468e-02 7.276924923172412e-02 4.433717906326359e-01
-6.171762539199399e-02 1.819587180636242e-01 4.251977355687762e-01
-1.219387855237222e-01 -2.233444788288142e-01 -1.013675271865180e-01
-2.068153471609991e-01 -2.087927369631789e-01 -8.025027471353396e-02
3.703375261965942e-02 -2.036727951749070e-01 -2.267535677697646e-01
4.503588427105589e-01 -5.003875934688373e-02 -3.843806536329373e-01
-1.698957712376971e-01 -2.013511953002716e-01 -1.592793139159493e-01
-8.832042983551691e-02 5.409748576613749e-02 -1.677574584079158e-01
-2.390217799534533e-01 -1.379589744241904e-01 -2.301123667367721e-01
-4.404994938217861e-01 8.227262357710385e-02 -4.577054126857759e-01
2.263571239522866e-02 -2.903146251662944e-01 1.729970338295705e-01
-1.259754266655624e-01 -4.232614326876240e-01 3.814702848279503e-01
2.200910833709445e-01 1.200918980313867e-01 2.563443071188159e-01
4.663156859839187e-01 2.109394343344290e-01 3.758943018219127e-01
-1.794118227181052e-01 -1.897965217903157e-01 -1.768632235069842e-01
-1.372533050139582e-01 -1.747270910846325e-01 -2.824879995292603e-01
-2.568383676202085e-01 -1.339925002210595e-01 -2.326528568485594e-01
-3.476169779600600e-01 -1.253442827429608e-01 -2.158365342222234e-01
-3.453348057820514e-02 -8.744396784239060e-02 2.520101689201070e-01
-1.764960416513077e-01 -5.741366892802291e-02 1.943590632832500e-01
2.973194186075637e-01 -2.954468480460443e-01 1.664352905264681e-02
4.902186784163677e-01 -2.803020165816327e-01 -2.575056307988099e-02
-3.380995988281227e-01 3.385863517023231e-01 4.028097706018423e-01
-3.668202883014303e-01 4.215536257366518e-01 3.235790815754781e-01
-7.602683985612368e-02 1.281532465154801e-01 4.148400556639127e-01
-4.032256553344382e-02 3.542796459900606e-01 2.149323026944314e-01
1.136784166693801e-01 1.406916472172665e-01 1.392174651556472e-01
5.514966029200674e-02 1.465585910050851e-01 3.084427916015686e-02
3.061869222323893e-01 3.021543812542572e-01 -1.667148255236131e-01
4.972199871789256e-01 2.988825470078206e-01 -2.577354427763016e-01
1.663020569704750e-01 2.156414914357971e-01 -1.361734004261369e-03
6.436847814964308e-02 2.882888179055696e-01 -1.316591364961346e-01
2.610667636043307e-01 1.748352362121416e-01 2.978112635176672e-01
2.485461332099967e-01 4.263434379944634e-01 4.311691432377115e-01
7.266107545139580e-02 -2.774044676671961e-01 -3.735131368184670e-01
1.224178937096358e-01 -3.772990651150898e-01 -4.691557876491611e-01
-7.791741993603149e-02 1.522776983625207e-01 4.222584639415624e-01
-1.338977056408212e-01 3.358801847686744e-01 4.926093555031642e-01
-9.604212072307952e-02 -3.477518935213834e-01 2.455650339885851e-01
-3.436359018439405e-01 -3.913817527367667e-01 2.501101800937265e-01
1.281853124110340e-01 1.551764305414771e-01 1.015107758223171e-01
1.593931013816963e-01 1.077368783184939e-01 3.371953390079974e-02
5.812933574204689e-02 1.567430463400087e-01 7.443300092250173e-02
-1.574309362338222e-02 1.929789206231032e-01 4.235385093269239e-02
4.417334704837756e-01 -4.586513205973910e-02 -3.784136358055964e-01
4.622087793506188e-01 -2.645741315143368e-02 -3.819418052631831e-01
3.175822019712863e-01 -2.804935348076590e-01 1.087495713739345e-02
3.530893603895031e-01 -1.366057702982418e-01 -1.081798012504609e-02
3.700925295589243e-01 -2.884636342499985e-01 -2.996469858079669e-02
4.271316003655606e-01 -3.286909606019502e-01 -1.911132646846532e-01
2.646188258297114e-01 -1.253615127626469e-01 -3.576251518537584e-01
2.908881430774580e-01 -1.377365185366533e-01 -4.662984440559215e-01
-8.672494116149254e-02 -2.073278315291305e-01 -2.915869858932022e-02
-4.170680894813328e-02 -2.958103079396028e-01 -5.291871107210122e-02
-3.036151356698210e-01 1.799532405764544e-01 3.604262583987166e-01
-2.824454620260315e-01 1.938695670377013e-01 1.557551508243453e-01
2.671540244640850e-01 3.503308488724849e-01 3.400378502175657e-01
2.929759202154940e-01 4.654352701885879e-01 2.928864007537183e-01
3.641428366694249e-01 -3.177560714061605e-01 -1.124084885883436e-01
2.532000514874808e-01 -4.032822287968514e-01 -2.843487166683470e-01
1.159882682161909e-01 2.242493885536768e-01 -8.871411814532819e-02
6.840616638729113e-02 1.605148774176751e-01 -2.320894732335910e-01
2.472397337996971e-01 1.049750942332844e-01 2.381833047933412e-01
3.789443726940102e-01 -4.113540535114679e-02 1.590770171635288e-01
-2.771855626613113e-01 -3.461589250162487e-01 2.236590113629332e-01
-3.980788286118944e-01 -2.852895673662800e-01 1.640124826102535e-01
2.436500612674656e-01 3.674490279407169e-01 3.813374283484355e-01
1.631301085849335e-01 3.521826306103569e-01 4.536751722661314e-01
1.764955905535739e-02 1.851782947722328e-02 3.616140639918766e-01
1.431178679552148e-02 1.382563869813769e-02 3.319679169739643e-01
-2.694523661423777e-01 1.846658019787541e-01 1.786849890346127e-01
-2.243896778208718e-01 1.723045211862255e-01 9.447444759218193e-02
2.728546544257843e-01 -3.753350472431484e-01 -2.730380849592429e-01
2.598263961483338e-01 -3.647807873273359e-01 -3.240571765894087e-01
1.431983410990186e-01 -1.423465417663002e-01 -2.980976291137238e-01
1.372177990917901e-01 3.045175978914749e-02 -3.672563353656918e-01
3.346935559357475e-01 -2.834011172651912e-01 -3.906452264244815e-03
3.369753217767184e-01 -2.891703937258278e-01 -3.141845399949172e-02
7.754203140243654e-02 -2.742645300918479e-01 -3.822300786945224e-01
1.795721351408270e-01 -2.307031746842350e-01 -4.748893504623665e-01
-4.735632775090094e-02 -1.527225416717009e-01 1.432796206513850e-01
-8.220981861859566e-02 -1.838975514056796e-01 1.416242131171676e-01
-1.067804595447119e-01 2.986923981518536e-01 4.440419062462922e-01
-1.110671036244693e-01 4.819274065496584e-01 4.020635862972993e-01
3.763086220458576e-01 -2.860964371893965e-01 -2.954366300654519e-02
3.735554700860404e-01 -2.561243279011574e-01 -2.649278223876772e-02
3.814835433563434e-01 2.672338636324957e-01 -2.021656470060309e-01
4.356949615284887e-01 1.597381126071421e-01 -2.266475198568376e-01
7.372999218411766e-02 -2.876706426155131e-01 -3.760256665769402e-01
4.428259184759264e-02 -3.828333691856429e-01 -3.281210811572373e-01
1.061360111654155e-01 1.475176262451894e-01 1.360816581410700e-01
6.126213453700746e-02 2.487684789420608e-01 1.912980619221323e-01

CELLS 113 339
2 0 8
2 2 40
2 2 90
2 4 26
2 4 24
2 6 14
2 6 102
2 8 22
2 8 2
2 10 28
2 10 3
2 12 34
2 12 48
2 14 20
2 14 32
2 16 44
2 16 18
2 18 76
2 18 9
2 20 42
2 20 15
2 22 46
2 22 16
2 24 25
2 24 10
2 26 96
2 26 56
2 28 29
2 28 36
2 30 31
2 30 38
2 32 60
2 32 7
2 34 54
2 34 84
2 36 37
2 36 30
2 38 39
2 38 11
2 40 41
2 40 6
2 42 68
2 42 21
2 44 45
2 44 17
2 46 47
2 46 58
2 48 112
2 48 62
2 50 108
2 50 1
2 52 82
2 52 50
2 54 78
2 54 35
2 56 110
2 56 100
2 58 104
2 58 23
2 60 86
2 60 33
2 62 63
2 62 52
2 64 65
2 64 49
2 66 67
2 66 27
2 68 69
2 68 98
2 70 80
2 70 106
2 72 73
2 72 66
2 74 75
2 74 4
2 76 92
2 76 19
2 78 79
2 78 88
2 80 94
2 80 71
2 82 83
2 82 53
2 84 85
2 84 13
2 86 87
2 86 61
2 88 89
2 88 55
2 90 91
2 90 12
2 92 93
2 92 77
2 94 95
2 94 81
2 96 97
2 96 72
2 98 99
2 98 70
2 100 101
2 100 5
2 102 103
2 102 74
2 104 105
2 104 59
2 106 107
2 106 43
2 108 109
2 108 51
2 110 111
2 110 57
2 112 113
2 112 64

CELL_TYPES 113
3
3
3
3
3
3
3
3
3
3
3
3
3
3
3
3
3
3
3
3
3
3
3
3
3
3
3
3
3
3
3
3
3
3
3
3
3
3
3
3
3
3
3
3
3
3
3
3
3
3
3
3
3
3
3
3
3
3
3
3
3
3
3
3
3
3
3
3
3
3
3
3
3
3
3
3
3
3
3
3
3
3
3
3
3
3
3
3
3
3
3
3
3
3
3
3
3
3
3
3
3
3
3
3
3
3
3
3
3
3
3
3
3

CELL_DATA 113

SCALARS vessel_id int 1
LOOKUP_TABLE default
0
1
2
3
4
5
6
7
8
9
10
11
12
13
14
15
16
17
18
19
20
21
22
23
24
25
26
27
28
29
30
31
32
33
34
35
36
37
38
39
40
41
42
43
44
45
46
47
48
49
50
51
52
53
54
55
56
57
58
59
60
61
62
63
64
65
66
67
68
69
70
71
72
73
74
75
76
77
78
79
80
81
82
83
84
85
86
87
88
89
90
91
92
93
94
95
96
97
98
99
100
101
102
103
104
105
106
107
108
109
110
111
112

SCALARS parent_id int 1
LOOKUP_TABLE default
-1
8
8
74
74
40
40
0
0
24
24
90
90
5
5
22
22
16
16
13
13
7
7
4
4
3
3
9
9
36
36
14
14
11
11
28
28
30
30
1
1
19
19
15
15
21
21
12
12
52
52
62
62
33
33
26
26
46
46
31
31
48
48
112
112
72
72
41
41
98
98
96
96
102
102
17
17
53
53
69
69
51
51
34
34
59
59
78
78
2
2
75
75
79
79
25
25
68
68
56
56
6
6
57
57
70
70
49
49
55
55
47
47

SCALARS length double 1
LOOKUP_TABLE default
5.285600271301456e-02
1.697410793905493e-01
4.646557525375398e-02
1.974753745774127e-01
2.012906184923504e-02
1.525634174573757e-01
2.830201232481014e-02
9.250445674599744e-02
6.115104408120475e-02
3.404164934554908e-02
4.723734233713702e-01
1.176899817752151e-01
1.184298329166988e-01
6.343361187436534e-02
1.739146243804419e-02
1.635956039833402e-01
3.995307633886894e-02
3.816835401507186e-02
1.212760790297426e-01
2.487441967738900e-01
2.312953537828062e-01
6.322964046888312e-02
2.217571259120384e-01
8.866635358859810e-02
6.424804738880269e-02
1.418513457573771e-01
1.680596226582333e-01
2.682917142169636e-01
2.309241417013693e-02
3.753582562141918e-01
1.842872224814752e-02
1.504977824316035e-01
7.688111047328168e-02
7.997091920658062e-02
3.599151264727320e-02
1.147214960962429e-01
9.526777825288979e-02
9.272721535480345e-02
3.146346140241418e-02
1.561372395697858e-01
1.002488559502480e-01
2.583521605080690e-02
5.665338216303916e-02
1.182622029564052e-01
9.406144703493662e-02
3.039260657488164e-01
2.531000298958147e-02
1.064495918773531e-02
4.291914948468594e-02
9.025399962015147e-02
2.726217756094017e-01
1.011731794831576e-01
2.332249997515104e-01
1.806068919840214e-01
2.225479591702827e-01
1.062307567694775e-02
1.047224974127393e-02
1.508139838625590e-01
3.394164980469962e-02
1.824701562808655e-01
1.583285524327658e-01
8.843127098948785e-02
1.252663685223731e-01
8.831334140139430e-02
4.486176836830826e-02
2.843142286516571e-02
1.128811377221042e-02
1.497832787781266e-01
2.279786249066504e-02
8.769506389093716e-02
6.664885496737092e-03
1.124860090616880e-01
1.952471074326402e-01
1.020799640129795e-01
6.578607105584899e-02
1.849843021632686e-01
3.003588268028811e-02
1.270395894721537e-01
5.050864771846415e-02
1.935219313309543e-01
1.013982146492829e-01
1.639592533859750e-01
9.278968606144564e-02
2.120193263305590e-01
5.493184839483029e-02
1.479120307654603e-01
8.461924161649649e-02
1.093127387935541e-01
7.730279985130788e-02
3.020018892281194e-02
1.624766597230188e-01
9.630608719920179e-02
2.791607623308038e-02
5.370359044683824e-02
3.598998142701659e-02
1.862201561421149e-01
1.362899529901478e-01
2.820285882162490e-02
4.424645311084175e-02
1.445457519208444e-01
3.639770099719164e-02
4.679089047755446e-02
1.851123965185635e-01
1.880309096019857e-01
6.691093809396183e-02
3.025252145456958e-02
1.141203919532619e-01
1.228559174277865e-01
1.322292168548195e-01
1.105348054644983e-01
1.381194603437463e-01
1.237507625108566e-01
7.867849895608768e-02

SCALARS radius double 1
LOOKUP_TABLE default
1.025071449332911e-02
8.597028812996288e-03
6.578609212376446e-03
5.878547706078620e-03
5.292178594468742e-03
6.386062653497288e-03
7.146159772486734e-03
5.394795596298426e-03
9.726264183724600e-03
5.915761123458637e-03
4.084120847543104e-03
4.791703089955805e-03
5.560514380604418e-03
5.769170574213910e-03
4.249388391830881e-03
3.373703193771254e-03
3.970758171207254e-03
3.885874137205841e-03
2.491287465501700e-03
5.612105428640202e-03
2.660890031057141e-03
3.825941319817389e-03
4.657096964616684e-03
2.609147223100885e-03
6.504160229835374e-03
4.896436556246079e-03
4.449264075078101e-03
3.979428130446125e-03
5.958455426170390e-03
4.799015489428878e-03
4.038710861547615e-03
4.195485902902149e-03
2.022412852146521e-03
4.559703440865019e-03
3.076811268706508e-03
3.275547918581696e-03
5.608322301899829e-03
3.572692270184085e-03
2.726750683417135e-03
2.156203452785209e-03
8.551577201500829e-03
5.503519058675929e-03
2.158934048037951e-03
3.566946611539243e-03
3.368511480155477e-03
2.697799201251362e-03
3.419239016463722e-03
3.225734467275270e-03
5.172168700343294e-03
3.825318733613282e-03
3.284099117916119e-03
3.371908349659988e-03
4.504458936102485e-03
4.277351274692437e-03
2.862977387708609e-03
3.674738938945602e-03
3.375335275969555e-03
3.298277772092923e-03
1.599769167784337e-03
3.944563743027298e-03
2.765687877809581e-03
2.051054732430756e-03
5.062338973688128e-03
2.495067611475822e-03
2.106419354629234e-03
3.565642341589125e-03
2.830371705932162e-03
2.807584961841764e-03
5.248313011366437e-03
4.745481651217340e-03
3.141100463345386e-03
2.903558007569594e-03
4.081795185302948e-03
2.100653211876862e-03
7.083249003305468e-03
3.744263633953840e-03
1.835511529468926e-03
2.942853655777359e-03
3.750868596655649e-03
4.333786317101044e-03
2.908990446898560e-03
2.874345359361474e-03
2.493043703171193e-03
2.840910683157848e-03
2.026841418731850e-03
3.332889323658387e-03
2.898593402561698e-03
3.100126528474574e-03
2.842893114270312e-03
1.403201706696137e-03
6.557260040539618e-03
3.350965670228954e-03
2.458782638735653e-03
3.622642396713124e-03
3.277706335384667e-03
2.920373047718449e-03
4.522290722248468e-03
1.885732564212526e-03
5.165876613622884e-03
3.049910382992767e-03
2.160499815381130e-03
1.645693085226141e-03
7.144306442317524e-03
2.906900151335625e-03
2.245158895131491e-03
2.029628895506919e-03
2.828570817913901e-03
3.031474062447068e-03
3.087711343782820e-03
2.833244456059885e-03
2.995525376334384e-03
2.223626654744970e-03
2.826040283729254e-03

SCALARS flow double 1
LOOKUP_TABLE default
3.562500000000003e-03
1.937500000000001e-03
1.000000000000000e-03
5.000000000000000e-04
4.375000000000000e-04
8.125000000000003e-04
1.062500000000001e-03
6.250000000000001e-04
2.937500000000002e-03
3.125000000000000e-04
6.250000000000000e-05
3.750000000000000e-04
5.625000000000001e-04
5.625000000000001e-04
2.500000000000000e-04
1.250000000000000e-04
2.500000000000000e-04
1.875000000000000e-04
6.250000000000000e-05
5.000000000000000e-04
6.250000000000000e-05
2.500000000000000e-04
3.750000000000000e-04
6.250000000000000e-05
3.750000000000000e-04
2.500000000000000e-04
2.500000000000000e-04
6.250000000000000e-05
2.500000000000000e-04
6.250000000000000e-05
1.250000000000000e-04
1.875000000000000e-04
6.250000000000000e-05
2.500000000000000e-04
1.250000000000000e-04
6.250000000000000e-05
1.875000000000000e-04
6.250000000000000e-05
6.250000000000000e-05
6.250000000000000e-05
1.875000000000001e-03
4.375000000000000e-04
6.250000000000000e-05
6.250000000000000e-05
6.250000000000000e-05
6.250000000000000e-05
1.875000000000000e-04
1.875000000000000e-04
3.750000000000000e-04
1.250000000000000e-04
6.250000000000000e-05
1.250000000000000e-04
1.875000000000000e-04
1.875000000000000e-04
6.250000000000000e-05
1.250000000000000e-04
1.250000000000000e-04
1.250000000000000e-04
6.250000000000000e-05
1.250000000000000e-04
6.250000000000000e-05
6.250000000000000e-05
3.125000000000000e-04
6.250000000000000e-05
6.250000000000000e-05
6.250000000000000e-05
6.250000000000000e-05
6.250000000000000e-05
3.750000000000000e-04
1.875000000000000e-04
1.250000000000000e-04
6.250000000000000e-05
1.250000000000000e-04
6.250000000000000e-05
9.375000000000004e-04
1.250000000000000e-04
6.250000000000000e-05
6.250000000000000e-05
1.250000000000000e-04
1.250000000000000e-04
6.250000000000000e-05
6.250000000000000e-05
6.250000000000000e-05
6.250000000000000e-05
6.250000000000000e-05
6.250000000000000e-05
6.250000000000000e-05
6.250000000000000e-05
6.250000000000000e-05
6.250000000000000e-05
9.375000000000004e-04
6.250000000000000e-05
6.250000000000000e-05
6.250000000000000e-05
6.250000000000000e-05
6.250000000000000e-05
1.875000000000000e-04
6.250000000000000e-05
3.125000000000000e-04
6.250000000000000e-05
6.250000000000000e-05
6.250000000000000e-05
1.000000000000000e-03
6.250000000000000e-05
6.250000000000000e-05
6.250000000000000e-05
6.250000000000000e-05
6.250000000000000e-05
6.250000000000000e-05
6.250000000000000e-05
6.250000000000000e-05
6.250000000000000e-05
1.250000000000000e-04

SCALARS generation int 1
LOOKUP_TABLE default
0
2
2
6
6
3
3
1
1
5
5
4
4
3
3
3
3
3
3
4
4
2
2
4
4
4
4
6
6
8
8
4
4
4
4
7
7
9
9
3
3
5
5
4
4
3
3
4
4
7
7
6
6
5
5
5
5
4
4
5
5
5
5
6
6
7
7
6
6
8
8
6
6
5
5
4
4
6
6
8
8
7
7
5
5
6
6
7
7
3
3
5
5
9
9
5
5
7
7
6
6
4
4
5
5
9
9
8
8
6
6
5
5
